<svg xmlns="http://www.w3.org/2000/svg" width="1600" height="900" viewBox="0 0 1600 900" role="img" aria-label="Zoe - social taste graph concept">
  <defs>
    <linearGradient id="bg" x1="0%" y1="0%" x2="100%" y2="100%">
      <stop offset="0%" stop-color="#0b1220"/><stop offset="100%" stop-color="#05070d"/>
    </linearGradient>
    <linearGradient id="accent" x1="0%" y1="0%" x2="100%" y2="0%">
      <stop offset="0%" stop-color="#38bdf8"/><stop offset="100%" stop-color="#a78bfa"/>
    </linearGradient>
  </defs>
  <rect width="1600" height="900" fill="url(#bg)"/>
  <text x="120" y="200" fill="#f8fafc" font-family="ui-sans-serif, system-ui, sans-serif" font-size="64" font-weight="800" letter-spacing="-0.03em">Taste, shared</text>
  <text x="124" y="252" fill="#94a3b8" font-family="ui-sans-serif, system-ui, sans-serif" font-size="28">Follow how friends and creators evolve over time</text>

  <g transform="translate(160 330)">
    <g stroke="url(#accent)" stroke-opacity="0.45" stroke-width="3" fill="none">
      <path d="M380 130 L150 60 M380 130 L120 230 M380 130 L630 80 M380 130 L660 250 M380 130 L360 360"/>
    </g>
    <g font-family="ui-sans-serif, system-ui, sans-serif" text-anchor="middle">
      <g><circle cx="380" cy="130" r="46" fill="url(#accent)"/><text x="380" y="139" fill="#06101f" font-size="30" font-weight="800">You</text></g>
      <g fill="#1f2a45"><circle cx="150" cy="60" r="32"/><circle cx="120" cy="230" r="30"/><circle cx="630" cy="80" r="32"/><circle cx="660" cy="250" r="30"/><circle cx="360" cy="360" r="30"/></g>
      <g fill="#cbd5e1" font-size="22" font-weight="700"><text x="150" y="68">A</text><text x="120" y="238">B</text><text x="630" y="88">C</text><text x="660" y="258">D</text><text x="360" y="368">E</text></g>
    </g>
  </g>

  <g transform="translate(1010 320)">
    <rect width="440" height="280" rx="22" fill="#101a30" stroke="#243049" stroke-width="2"/>
    <text x="32" y="56" fill="#cbd5e1" font-family="ui-sans-serif, system-ui, sans-serif" font-size="22" font-weight="600">How taste evolves</text>
    <polyline points="32,220 110,190 188,205 266,150 344,120 408,80" fill="none" stroke="url(#accent)" stroke-width="5" stroke-linecap="round" stroke-linejoin="round"/>
    <g fill="#a78bfa"><circle cx="110" cy="190" r="5"/><circle cx="266" cy="150" r="5"/><circle cx="408" cy="80" r="6"/></g>
    <line x1="32" y1="244" x2="408" y2="244" stroke="#243049" stroke-width="2"/>
  </g>
  <text x="120" y="840" fill="#64748b" font-family="ui-sans-serif, system-ui, sans-serif" font-size="22">Design concept</text>
</svg>
