<svg xmlns="http://www.w3.org/2000/svg" width="1600" height="900" viewBox="0 0 1600 900" role="img" aria-label="Zoe - taste graph concept">
  <defs>
    <linearGradient id="bg" x1="0%" y1="0%" x2="100%" y2="100%">
      <stop offset="0%" stop-color="#0b1220"/>
      <stop offset="50%" stop-color="#111c33"/>
      <stop offset="100%" stop-color="#05070d"/>
    </linearGradient>
    <radialGradient id="glow" cx="78%" cy="28%" r="60%">
      <stop offset="0%" stop-color="#38bdf8" stop-opacity="0.30"/>
      <stop offset="55%" stop-color="#a78bfa" stop-opacity="0.16"/>
      <stop offset="100%" stop-color="#a78bfa" stop-opacity="0"/>
    </radialGradient>
    <linearGradient id="phone" x1="0%" y1="0%" x2="0%" y2="100%">
      <stop offset="0%" stop-color="#1b2740"/>
      <stop offset="100%" stop-color="#0d1526"/>
    </linearGradient>
    <linearGradient id="accent" x1="0%" y1="0%" x2="100%" y2="0%">
      <stop offset="0%" stop-color="#38bdf8"/>
      <stop offset="100%" stop-color="#a78bfa"/>
    </linearGradient>
  </defs>

  <rect width="1600" height="900" fill="url(#bg)"/>
  <rect width="1600" height="900" fill="url(#glow)"/>

  <g stroke="#38bdf8" stroke-opacity="0.35" stroke-width="2" fill="none">
    <path d="M1180 250 L1320 180 M1180 250 L1300 360 M1320 180 L1430 270 M1300 360 L1430 270 M1180 250 L1090 360 M1090 360 L1230 470"/>
  </g>
  <g fill="#a78bfa">
    <circle cx="1180" cy="250" r="9" fill="url(#accent)"/>
    <circle cx="1320" cy="180" r="7"/>
    <circle cx="1430" cy="270" r="7"/>
    <circle cx="1300" cy="360" r="7"/>
    <circle cx="1090" cy="360" r="6"/>
    <circle cx="1230" cy="470" r="6"/>
  </g>

  <g transform="translate(980 150)">
    <rect x="0" y="0" width="360" height="600" rx="46" fill="url(#phone)" stroke="#2b3a5a" stroke-width="2"/>
    <rect x="14" y="14" width="332" height="572" rx="34" fill="#0a1120"/>
    <rect x="150" y="30" width="60" height="8" rx="4" fill="#243049"/>
    <text x="40" y="86" fill="#f8fafc" font-family="ui-sans-serif, system-ui, sans-serif" font-size="26" font-weight="700">My taste</text>
    <rect x="40" y="104" width="120" height="6" rx="3" fill="url(#accent)"/>
    <g font-family="ui-sans-serif, system-ui, sans-serif">
      <g transform="translate(40 140)">
        <rect width="280" height="64" rx="14" fill="#131f36"/>
        <circle cx="34" cy="32" r="16" fill="url(#accent)"/>
        <text x="34" y="39" text-anchor="middle" fill="#0a1120" font-size="18" font-weight="700">1</text>
        <rect x="66" y="20" width="150" height="9" rx="4" fill="#cbd5e1"/>
        <rect x="66" y="38" width="96" height="7" rx="3" fill="#64748b"/>
      </g>
      <g transform="translate(40 216)">
        <rect width="280" height="64" rx="14" fill="#131f36"/>
        <circle cx="34" cy="32" r="16" fill="#1f2a45"/>
        <text x="34" y="39" text-anchor="middle" fill="#94a3b8" font-size="18" font-weight="700">2</text>
        <rect x="66" y="20" width="170" height="9" rx="4" fill="#cbd5e1"/>
        <rect x="66" y="38" width="80" height="7" rx="3" fill="#64748b"/>
      </g>
      <g transform="translate(40 292)">
        <rect width="280" height="64" rx="14" fill="#131f36"/>
        <circle cx="34" cy="32" r="16" fill="#1f2a45"/>
        <text x="34" y="39" text-anchor="middle" fill="#94a3b8" font-size="18" font-weight="700">3</text>
        <rect x="66" y="20" width="134" height="9" rx="4" fill="#cbd5e1"/>
        <rect x="66" y="38" width="108" height="7" rx="3" fill="#64748b"/>
      </g>
    </g>
    <rect x="14" y="520" width="332" height="66" rx="0" fill="#0c1424"/>
    <g fill="#475569">
      <circle cx="70" cy="553" r="7" fill="url(#accent)"/>
      <circle cx="140" cy="553" r="7"/>
      <circle cx="210" cy="553" r="7"/>
      <circle cx="280" cy="553" r="7"/>
    </g>
  </g>

  <text x="120" y="360" fill="#f8fafc" font-family="ui-sans-serif, system-ui, sans-serif" font-size="150" font-weight="800" letter-spacing="-0.04em">Zoe</text>
  <text x="128" y="430" fill="#e2e8f0" font-family="ui-sans-serif, system-ui, sans-serif" font-size="34" font-weight="600">A taste graph for what you love</text>
  <text x="128" y="478" fill="#94a3b8" font-family="ui-sans-serif, system-ui, sans-serif" font-size="24">Discover ideas, rank them, follow how taste evolves</text>
  <g transform="translate(128 520)">
    <rect width="200" height="48" rx="24" fill="url(#accent)"/>
    <text x="100" y="31" text-anchor="middle" fill="#06101f" font-family="ui-sans-serif, system-ui, sans-serif" font-size="20" font-weight="700">Mobile concept</text>
  </g>
</svg>
