<svg xmlns="http://www.w3.org/2000/svg" width="1600" height="900" viewBox="0 0 1600 900" role="img" aria-label="Zoe - discovery concept">
  <defs>
    <linearGradient id="bg" x1="0%" y1="0%" x2="100%" y2="100%">
      <stop offset="0%" stop-color="#0b1220"/><stop offset="100%" stop-color="#05070d"/>
    </linearGradient>
    <linearGradient id="accent" x1="0%" y1="0%" x2="100%" y2="0%">
      <stop offset="0%" stop-color="#38bdf8"/><stop offset="100%" stop-color="#a78bfa"/>
    </linearGradient>
    <linearGradient id="phone" x1="0%" y1="0%" x2="0%" y2="100%">
      <stop offset="0%" stop-color="#1b2740"/><stop offset="100%" stop-color="#0d1526"/>
    </linearGradient>
  </defs>
  <rect width="1600" height="900" fill="url(#bg)"/>
  <text x="120" y="200" fill="#f8fafc" font-family="ui-sans-serif, system-ui, sans-serif" font-size="64" font-weight="800" letter-spacing="-0.03em">Discover</text>
  <text x="124" y="252" fill="#94a3b8" font-family="ui-sans-serif, system-ui, sans-serif" font-size="28">Lifestyle ideas worth trying, not endless scrolling</text>
  <g transform="translate(120 320)">
    <rect width="560" height="64" rx="18" fill="#131f36"/>
    <circle cx="40" cy="32" r="12" fill="none" stroke="#38bdf8" stroke-width="3"/>
    <line x1="49" y1="41" x2="60" y2="52" stroke="#38bdf8" stroke-width="3"/>
    <rect x="78" y="26" width="240" height="12" rx="6" fill="#475569"/>
  </g>
  <g transform="translate(120 420)" font-family="ui-sans-serif, system-ui, sans-serif">
    <g fill="#475569">
      <g><rect width="270" height="170" rx="18" fill="#131f36"/><rect x="20" y="20" width="230" height="86" rx="12" fill="url(#accent)" opacity="0.5"/><rect x="20" y="120" width="150" height="12" rx="6" fill="#cbd5e1"/><rect x="20" y="142" width="100" height="10" rx="5"/></g>
      <g transform="translate(290 0)"><rect width="270" height="170" rx="18" fill="#131f36"/><rect x="20" y="20" width="230" height="86" rx="12" fill="#1f2a45"/><rect x="20" y="120" width="180" height="12" rx="6" fill="#cbd5e1"/><rect x="20" y="142" width="90" height="10" rx="5"/></g>
    </g>
  </g>
  <g transform="translate(980 150)">
    <rect x="0" y="0" width="360" height="600" rx="46" fill="url(#phone)" stroke="#2b3a5a" stroke-width="2"/>
    <rect x="14" y="14" width="332" height="572" rx="34" fill="#0a1120"/>
    <text x="40" y="80" fill="#f8fafc" font-family="ui-sans-serif, system-ui, sans-serif" font-size="24" font-weight="700">For you</text>
    <g transform="translate(40 110)">
      <rect width="280" height="130" rx="16" fill="#131f36"/><rect x="16" y="16" width="248" height="70" rx="10" fill="url(#accent)" opacity="0.55"/><rect x="16" y="98" width="160" height="10" rx="5" fill="#cbd5e1"/>
      <g transform="translate(0 150)"><rect width="280" height="130" rx="16" fill="#131f36"/><rect x="16" y="16" width="248" height="70" rx="10" fill="#1f2a45"/><rect x="16" y="98" width="120" height="10" rx="5" fill="#cbd5e1"/></g>
    </g>
  </g>
  <text x="120" y="840" fill="#64748b" font-family="ui-sans-serif, system-ui, sans-serif" font-size="22">Design concept</text>
</svg>
