<svg xmlns="http://www.w3.org/2000/svg" width="1600" height="900" viewBox="0 0 1600 900" role="img" aria-label="Zoe - ranked lists concept">
  <defs>
    <linearGradient id="bg" x1="0%" y1="0%" x2="100%" y2="100%">
      <stop offset="0%" stop-color="#0b1220"/><stop offset="100%" stop-color="#05070d"/>
    </linearGradient>
    <linearGradient id="accent" x1="0%" y1="0%" x2="100%" y2="0%">
      <stop offset="0%" stop-color="#38bdf8"/><stop offset="100%" stop-color="#a78bfa"/>
    </linearGradient>
  </defs>
  <rect width="1600" height="900" fill="url(#bg)"/>
  <text x="120" y="200" fill="#f8fafc" font-family="ui-sans-serif, system-ui, sans-serif" font-size="64" font-weight="800" letter-spacing="-0.03em">Ranked lists</text>
  <text x="124" y="252" fill="#94a3b8" font-family="ui-sans-serif, system-ui, sans-serif" font-size="28">You rank what you love; followers see it when the order changes</text>
  <g transform="translate(120 330)" font-family="ui-sans-serif, system-ui, sans-serif">
    <g>
      <rect width="760" height="86" rx="18" fill="#131f36"/>
      <circle cx="52" cy="43" r="24" fill="url(#accent)"/><text x="52" y="51" text-anchor="middle" fill="#06101f" font-size="24" font-weight="800">1</text>
      <rect x="96" y="28" width="280" height="14" rx="7" fill="#e2e8f0"/><rect x="96" y="52" width="170" height="10" rx="5" fill="#64748b"/>
      <g transform="translate(620 28)"><path d="M0 18 L18 0 L36 18 Z" fill="#34d399"/><rect x="46" y="6" width="70" height="12" rx="6" fill="#34d399" opacity="0.5"/></g>
    </g>
    <g transform="translate(0 106)">
      <rect width="760" height="86" rx="18" fill="#131f36"/>
      <circle cx="52" cy="43" r="24" fill="#1f2a45"/><text x="52" y="51" text-anchor="middle" fill="#94a3b8" font-size="24" font-weight="800">2</text>
      <rect x="96" y="28" width="340" height="14" rx="7" fill="#e2e8f0"/><rect x="96" y="52" width="140" height="10" rx="5" fill="#64748b"/>
    </g>
    <g transform="translate(0 212)">
      <rect width="760" height="86" rx="18" fill="#131f36"/>
      <circle cx="52" cy="43" r="24" fill="#1f2a45"/><text x="52" y="51" text-anchor="middle" fill="#94a3b8" font-size="24" font-weight="800">3</text>
      <rect x="96" y="28" width="220" height="14" rx="7" fill="#e2e8f0"/><rect x="96" y="52" width="200" height="10" rx="5" fill="#64748b"/>
    </g>
  </g>
  <g transform="translate(1010 300)">
    <rect width="430" height="240" rx="22" fill="#101a30" stroke="#243049" stroke-width="2"/>
    <text x="32" y="56" fill="#cbd5e1" font-family="ui-sans-serif, system-ui, sans-serif" font-size="22" font-weight="600">Following: taste update</text>
    <circle cx="50" cy="120" r="22" fill="url(#accent)"/>
    <rect x="86" y="104" width="240" height="12" rx="6" fill="#cbd5e1"/>
    <rect x="86" y="126" width="300" height="10" rx="5" fill="#64748b"/>
    <rect x="32" y="170" width="366" height="10" rx="5" fill="#1f2a45"/>
    <rect x="32" y="170" width="210" height="10" rx="5" fill="url(#accent)"/>
  </g>
  <text x="120" y="840" fill="#64748b" font-family="ui-sans-serif, system-ui, sans-serif" font-size="22">Design concept</text>
</svg>
